<svg id="Layer_1" enable-background="new 0 0 512.003 512.003" height="auto" viewBox="0 0 512.003 512.003" width="20px" xmlns="http://www.w3.org/2000/svg"><g><path d="m475.684 19.211h-439.365c-20.026 0-36.319 16.293-36.319 36.32v297.995c0 20.026 16.293 36.319 36.319 36.319h165.64v21.777c0 9.138-4.398 17.747-11.479 22.47l-18.744 12.504h-14.903c-9.649 0-17.499 7.85-17.499 17.499v11.197c0 9.649 7.85 17.499 17.499 17.499h198.335c9.649 0 17.499-7.85 17.499-17.499v-11.197c0-9.649-7.85-17.499-17.499-17.499h-14.903l-18.745-12.504c-7.08-4.723-11.478-13.333-11.478-22.47v-21.777h165.64c20.026 0 36.319-16.293 36.319-36.319v-297.995c.002-20.027-16.291-36.32-36.317-36.32zm-120.515 442.385c1.378 0 2.499 1.121 2.499 2.499v11.197c0 1.378-1.121 2.499-2.499 2.499h-198.335c-1.378 0-2.499-1.121-2.499-2.499v-11.197c0-1.378 1.121-2.499 2.499-2.499zm-41.972-15.025.038.025h-114.468l.038-.025c11.367-7.582 18.154-20.647 18.154-34.948v-21.777h78.085v21.777c0 14.3 6.786 27.365 18.153 34.948zm183.806-93.045c0 11.756-9.563 21.319-21.319 21.319-11.908 0-427.915 0-439.364 0-11.756 0-21.319-9.563-21.319-21.319v-297.995c0-11.756 9.563-21.319 21.319-21.319h439.364c11.756 0 21.319 9.563 21.319 21.319z"/><path d="m469.16 50.407c-17.638 0-408.642 0-426.318 0-6.422 0-11.646 5.225-11.646 11.646v284.949c0 6.422 5.225 11.646 11.646 11.646h426.318c6.422 0 11.646-5.225 11.646-11.646v-119.97c0-4.143-3.357-7.5-7.5-7.5s-7.5 3.357-7.5 7.5v116.617h-419.611v-241.153h419.611v89.536c0 4.143 3.357 7.5 7.5 7.5s7.5-3.357 7.5-7.5c0-.808 0-128.261 0-129.979.001-6.422-5.224-11.646-11.646-11.646zm-392.93 37.089h-30.035v-22.089h30.035zm389.577 0h-374.577v-22.089h374.576v22.089z"/><path d="m327.626 182.535c17.995 0 32.635-14.64 32.635-32.635s-14.64-32.635-32.635-32.635-32.635 14.64-32.635 32.635c0 2.761.348 5.441.996 8.003l-75.86 39.458c-3.219-4.164-7.218-7.755-11.869-10.498-3.566-2.102-8.165-.916-10.271 2.651-2.104 3.568-.917 8.166 2.651 10.271 8.22 4.846 13.325 13.769 13.325 23.286 0 14.896-12.119 27.016-27.016 27.016s-27.016-12.119-27.016-27.016c0-9.518 5.105-18.44 13.325-23.286 3.568-2.104 4.755-6.702 2.651-10.271-2.104-3.567-6.701-4.753-10.271-2.651-12.771 7.531-20.706 21.405-20.706 36.208 0 23.168 18.848 42.016 42.016 42.016 12.088 0 22.993-5.138 30.666-13.337l52.152 33.599c-1.211 3.409-1.877 7.075-1.877 10.895 0 17.995 14.64 32.635 32.635 32.635s32.635-14.64 32.635-32.635-14.64-32.635-32.635-32.635c-8.775 0-16.746 3.488-22.617 9.142l-52.148-33.597c2.062-4.957 3.206-10.388 3.206-16.083 0-4.257-.676-8.43-1.915-12.404l75.882-39.469c5.99 6.935 14.836 11.337 24.696 11.337zm0-50.27c9.724 0 17.635 7.911 17.635 17.635s-7.911 17.635-17.635 17.635-17.635-7.911-17.635-17.635 7.911-17.635 17.635-17.635zm-27.103 146.345c9.724 0 17.635 7.911 17.635 17.635s-7.911 17.635-17.635 17.635-17.635-7.911-17.635-17.635 7.912-17.635 17.635-17.635z"/></g></svg>