 <svg viewBox="0 0 48 48" fill="none" xmlns="http://www.w3.org/2000/svg">
                                <path fill-rule="evenodd" clip-rule="evenodd"
                                    d="M24.3017 27.9089H18.4294C17.3488 27.9089 16.4719 27.0158 16.4719 25.9154C16.4719 24.815 17.3488 23.9219 18.4294 23.9219H24.3017C25.3823 23.9219 26.2592 24.815 26.2592 25.9154C26.2592 27.0158 25.3823 27.9089 24.3017 27.9089ZM18.4294 31.8959H30.1741C31.2566 31.8959 32.1316 32.7889 32.1316 33.8893C32.1316 34.9898 31.2566 35.8828 30.1741 35.8828H18.4294C17.3488 35.8828 16.4719 34.9898 16.4719 33.8893C16.4719 32.7889 17.3488 31.8959 18.4294 31.8959ZM34.9587 39.8698H13.6439C13.0449 39.8698 12.5575 39.4233 12.5575 38.8731V8.97078C12.5575 8.42058 13.0449 7.97403 13.6439 7.97403H24.3023V14.2535C24.3023 17.3873 26.6845 19.9349 29.6148 19.9349H36.047V38.8731C36.047 39.4233 35.5596 39.8698 34.9587 39.8698ZM28.2172 9.92369L33.5846 15.948H29.6148C28.8436 15.948 28.2172 15.1885 28.2172 14.2535V9.92369ZM39.453 16.6018L28.7966 4.64092C28.4247 4.22429 27.9001 3.98706 27.3461 3.98706H13.6439C10.8858 3.98706 8.64258 6.22375 8.64258 8.97078V38.8731C8.64258 41.6201 10.8858 43.8568 13.6439 43.8568H34.9587C37.7168 43.8568 39.962 41.6201 39.962 38.8731V17.9415C39.962 17.4451 39.7799 16.9686 39.453 16.6018Z"
                                    fill="#231F20" />
                                <mask id="mask0" mask-type="alpha" maskUnits="userSpaceOnUse" x="8" y="3" width="32"
                                    height="41">
                                    <path fill-rule="evenodd" clip-rule="evenodd"
                                        d="M24.3017 27.9089H18.4294C17.3488 27.9089 16.4719 27.0158 16.4719 25.9154C16.4719 24.815 17.3488 23.9219 18.4294 23.9219H24.3017C25.3823 23.9219 26.2592 24.815 26.2592 25.9154C26.2592 27.0158 25.3823 27.9089 24.3017 27.9089ZM18.4294 31.8959H30.1741C31.2566 31.8959 32.1316 32.7889 32.1316 33.8893C32.1316 34.9898 31.2566 35.8828 30.1741 35.8828H18.4294C17.3488 35.8828 16.4719 34.9898 16.4719 33.8893C16.4719 32.7889 17.3488 31.8959 18.4294 31.8959ZM34.9587 39.8698H13.6439C13.0449 39.8698 12.5575 39.4233 12.5575 38.8731V8.97078C12.5575 8.42058 13.0449 7.97403 13.6439 7.97403H24.3023V14.2535C24.3023 17.3873 26.6845 19.9349 29.6148 19.9349H36.047V38.8731C36.047 39.4233 35.5596 39.8698 34.9587 39.8698ZM28.2172 9.92369L33.5846 15.948H29.6148C28.8436 15.948 28.2172 15.1885 28.2172 14.2535V9.92369ZM39.453 16.6018L28.7966 4.64092C28.4247 4.22429 27.9001 3.98706 27.3461 3.98706H13.6439C10.8858 3.98706 8.64258 6.22375 8.64258 8.97078V38.8731C8.64258 41.6201 10.8858 43.8568 13.6439 43.8568H34.9587C37.7168 43.8568 39.962 41.6201 39.962 38.8731V17.9415C39.962 17.4451 39.7799 16.9686 39.453 16.6018Z"
                                        fill="white" />
                                </mask>
                                <g mask="url(#mask0)">
                                </g>
                            </svg>