<svg height="auto" viewBox="0 0 128 128" width="20px" xmlns="http://www.w3.org/2000/svg"><g><path d="m88.19 97.013 3.338 7.45a1.751 1.751 0 0 0 3.195-1.432l-3.339-7.449a1.75 1.75 0 1 0 -3.194 1.431z"/><path d="m109.242 61.655c2.538-2.548 5.162-5.182 5.162-8.647s-2.624-6.1-5.162-8.646c-1.614-1.62-3.282-3.3-3.779-4.826-.534-1.644-.166-4.059.19-6.4.531-3.48 1.079-7.079-.875-9.764-1.974-2.712-5.589-3.3-9.084-3.87-2.314-.377-4.706-.767-6.075-1.763-1.341-.976-2.436-3.111-3.494-5.176-1.625-3.17-3.311-6.453-6.546-7.503-3.1-1.007-6.323.609-9.437 2.174-2.142 1.077-4.357 2.19-6.142 2.19s-4-1.113-6.142-2.19c-3.114-1.564-6.335-3.182-9.437-2.174-3.235 1.05-4.918 4.333-6.546 7.507-1.058 2.066-2.152 4.2-3.493 5.177-1.369 1-3.762 1.386-6.076 1.762-3.495.57-7.11 1.158-9.084 3.871-1.953 2.685-1.405 6.283-.875 9.763.356 2.336.724 4.751.19 6.4-.5 1.531-2.165 3.206-3.779 4.826-2.538 2.543-5.158 5.177-5.158 8.642s2.624 6.1 5.162 8.647c1.614 1.619 3.282 3.3 3.779 4.826.534 1.644.166 4.059-.19 6.394-.531 3.481-1.079 7.08.875 9.765 1.974 2.713 5.588 3.3 9.084 3.87.56.091 1.124.183 1.678.285l-11.391 25.4a1.75 1.75 0 0 0 2.061 2.4l11.738-3.228 5.4 10.906a1.747 1.747 0 0 0 1.568.974h.034a1.75 1.75 0 0 0 1.563-1.034l9.86-21.994c1.019-.426 2.036-.935 3.041-1.44 2.138-1.073 4.353-2.186 6.138-2.186s4 1.113 6.142 2.189c1.005.505 2.02 1.01 3.04 1.436l9.861 22a1.75 1.75 0 0 0 1.563 1.034h.034a1.747 1.747 0 0 0 1.568-.974l5.4-10.906 11.738 3.228a1.75 1.75 0 0 0 2.061-2.4l-11.391-25.4c.554-.1 1.118-.194 1.678-.285 3.495-.569 7.11-1.157 9.084-3.87 1.953-2.684 1.405-6.283.875-9.763-.356-2.336-.724-4.751-.19-6.4.497-1.532 2.165-3.208 3.779-4.827zm-65.961 55.745-4.393-8.874a1.748 1.748 0 0 0 -2.032-.911l-9.55 2.626 10.094-22.51a5.319 5.319 0 0 1 .981.542c1.341.976 2.436 3.111 3.494 5.176 1.628 3.175 3.311 6.458 6.546 7.508a6.48 6.48 0 0 0 2.094.305zm57.413-7.159-9.55-2.626a1.746 1.746 0 0 0 -2.032.911l-4.393 8.874-7.233-16.132h.072a6.5 6.5 0 0 0 2.021-.313c3.235-1.051 4.918-4.333 6.546-7.508 1.058-2.065 2.152-4.2 3.493-5.176a5.329 5.329 0 0 1 .982-.542zm1.44-44.838c-.79 2.433-.359 5.266.059 8 .424 2.781.862 5.656-.245 7.177-1.127 1.548-4.02 2.02-6.817 2.475-2.718.443-5.529.9-7.572 2.387-2.016 1.467-3.3 3.979-4.549 6.41-1.3 2.542-2.651 5.171-4.512 5.775-1.737.564-4.3-.727-6.785-1.973-2.506-1.26-5.1-2.562-7.713-2.562s-5.207 1.3-7.713 2.562c-2.487 1.246-5.052 2.538-6.787 1.974-1.861-.6-3.209-3.233-4.512-5.775-1.245-2.431-2.533-4.943-4.549-6.41-2.044-1.487-4.855-1.945-7.573-2.388-2.8-.455-5.689-.926-6.816-2.475-1.107-1.52-.669-4.4-.245-7.177.418-2.738.849-5.57.059-8-.756-2.327-2.724-4.3-4.629-6.215-2.035-2.047-4.135-4.161-4.135-6.18s2.106-4.133 4.142-6.176c1.9-1.912 3.872-3.888 4.628-6.215.79-2.433.359-5.265-.059-8-.424-2.78-.862-5.656.245-7.176 1.127-1.55 4.02-2.02 6.817-2.476 2.718-.442 5.529-.9 7.572-2.387 2.016-1.467 3.3-3.98 4.549-6.41 1.3-2.542 2.651-5.171 4.512-5.775 1.736-.565 4.3.726 6.785 1.973 2.506 1.26 5.1 2.562 7.713 2.562s5.207-1.3 7.713-2.562c2.482-1.247 5.051-2.537 6.785-1.973 1.861.6 3.209 3.233 4.512 5.775 1.245 2.43 2.533 4.943 4.549 6.41 2.044 1.487 4.854 1.945 7.572 2.387 2.8.456 5.69.927 6.817 2.476 1.107 1.521.669 4.4.245 7.177-.418 2.738-.849 5.57-.059 8 .756 2.327 2.724 4.3 4.628 6.215 2.036 2.043 4.142 4.157 4.142 6.176s-2.106 4.133-4.141 6.177c-1.909 1.914-3.877 3.887-4.633 6.214z"/><path d="m64 18.424a34.585 34.585 0 1 0 34.584 34.584 34.623 34.623 0 0 0 -34.584-34.584zm0 65.669a31.085 31.085 0 1 1 31.084-31.085 31.12 31.12 0 0 1 -31.084 31.085z"/><path d="m83.055 47.055-12.082-1.755-5.4-10.948a1.749 1.749 0 0 0 -3.138 0l-5.408 10.948-12.082 1.755a1.75 1.75 0 0 0 -.97 2.985l8.743 8.522-2.064 12.038a1.75 1.75 0 0 0 2.539 1.844l10.807-5.685 10.807 5.681a1.75 1.75 0 0 0 2.539-1.84l-2.064-12.038 8.743-8.522a1.75 1.75 0 0 0 -.97-2.985zm-10.875 9.645a1.752 1.752 0 0 0 -.5 1.549l1.62 9.446-8.483-4.46a1.749 1.749 0 0 0 -1.628 0l-8.489 4.458 1.62-9.446a1.752 1.752 0 0 0 -.5-1.549l-6.863-6.69 9.484-1.378a1.752 1.752 0 0 0 1.318-.957l4.241-8.594 4.241 8.594a1.752 1.752 0 0 0 1.318.957l9.484 1.378z"/></g></svg>